<?xml version="1.0" encoding="utf-8"?>
<!-- Generator: Adobe Illustrator 25.0.0, SVG Export Plug-In . SVG Version: 6.00 Build 0)  -->
<svg version="1.1" id="Layer_1" xmlns="http://www.w3.org/2000/svg" xmlns:xlink="http://www.w3.org/1999/xlink" x="0px" y="0px"
	 width="135px" height="141px" viewBox="0 0 135 141" style="enable-background:new 0 0 135 141;" xml:space="preserve">
<style type="text/css">
	.st0{fill:#010101;}
	.st1{fill:#5993CE;stroke:#5993CE;stroke-width:2;stroke-miterlimit:10;}
	.st2{fill:#5993CE;}
</style>
<g>
	<g>
		<path class="st0" d="M103.9,79.4"/>
		<g>
			<path class="st1" d="M47.9,97.2c-0.3-0.7-0.5-1.4-0.5-2.1c0.1-4-2-6.4-4.4-9.2c-3.4-3.9-7.5-8.7-7.3-19.2
				c0.2-8.9,4-17.2,10.5-23.4c6.6-6.2,15.1-9.5,24-9.3c18.5,0.5,33.2,16,32.7,34.5c-0.3,10.7-4.7,15.1-8.3,18.7
				c-2.6,2.6-4.9,4.9-5,9c0,0.6-0.2,1.2-0.4,1.8L88,97.5c0.2-0.4,0.3-0.8,0.3-1.2c0.1-4.7,2.7-7.2,5.4-10c3.6-3.6,7.6-7.7,7.9-17.8
				c0.5-17.8-13.5-32.6-31.3-33.1S37.7,49,37.2,66.7c-0.3,10,3.5,14.4,6.9,18.2c2.5,2.9,4.9,5.7,4.8,10.2c0,0.5,0.1,0.9,0.3,1.4
				L47.9,97.2z"/>
			<path class="st1" d="M47.9,97.3L47.9,97.3c-0.4-0.8-0.6-1.5-0.5-2.2c0.1-3.9-2-6.3-4.4-9.1c-3.4-3.9-7.6-8.7-7.3-19.3
				c0.2-8.9,4-17.2,10.5-23.4c6.6-6.3,15.1-9.6,24.1-9.3c18.6,0.5,33.3,16.1,32.8,34.7c-0.3,10.7-4.7,15.2-8.3,18.8
				c-2.6,2.6-4.8,4.9-4.9,8.9c0,0.6-0.2,1.2-0.4,1.8l0,0.1l-1.5-0.7l0-0.1c0.2-0.4,0.3-0.8,0.3-1.2c0.1-4.7,2.7-7.3,5.4-10
				c3.5-3.6,7.6-7.6,7.8-17.7C102,50.8,88,36,70.3,35.5C52.6,35,37.8,49,37.3,66.7C37,76.7,40.8,81,44.2,84.9
				c2.5,2.9,4.9,5.7,4.8,10.3c0,0.5,0.1,0.9,0.3,1.3l0,0.1L47.9,97.3z M70.3,34.1c-8.9-0.2-17.4,3-24,9.3
				c-6.5,6.2-10.2,14.5-10.5,23.3c-0.3,10.5,3.9,15.3,7.2,19.1c2.5,2.8,4.6,5.3,4.5,9.3c0,0.7,0.1,1.3,0.4,1.9l1.1-0.5
				c-0.2-0.4-0.3-0.9-0.3-1.4c0.1-4.5-2.2-7.2-4.8-10.1c-3.4-3.9-7.2-8.3-6.9-18.3c0.5-17.8,15.4-31.9,33.2-31.4
				s31.9,15.4,31.4,33.2c-0.3,10.1-4.3,14.2-7.9,17.8c-2.7,2.7-5.2,5.3-5.4,9.9c0,0.4-0.1,0.8-0.3,1.1l1.1,0.5
				c0.2-0.5,0.3-1.1,0.4-1.6c0.1-4.1,2.4-6.4,5-9.1c3.5-3.6,8-8,8.3-18.7C103.4,50.1,88.8,34.6,70.3,34.1z"/>
		</g>
		<path class="st1" d="M85.6,107.1l-34.3-1c-2.3-0.1-4.1-2-4-4.2l0.1-3.4c0.1-2.3,2-4.1,4.2-4l34.3,1c2.3,0.1,4.1,2,4,4.2l-0.1,3.4
			C89.8,105.4,87.9,107.2,85.6,107.1z M51.6,95.9c-1.5,0-2.7,1.1-2.8,2.6l-0.1,3.4c0,1.5,1.1,2.7,2.6,2.8l34.3,1
			c1.5,0,2.7-1.1,2.8-2.6l0.1-3.4c0-1.5-1.1-2.7-2.6-2.8L51.6,95.9z"/>
		<path class="st1" d="M83.9,117.3l-31.5-0.9c-2.3-0.1-4.1-2-4-4.2l0.1-3.4c0.1-2.3,2-4.1,4.2-4l31.5,0.9c2.3,0.1,4.1,2,4,4.2
			l-0.1,3.4C88,115.5,86.2,117.3,83.9,117.3z M52.7,106.2c-1.5,0-2.7,1.1-2.8,2.6l-0.1,3.4c0,1.5,1.1,2.7,2.6,2.8l31.5,0.9
			c1.5,0,2.7-1.1,2.8-2.6l0.1-3.4c0-1.5-1.1-2.7-2.6-2.8L52.7,106.2z"/>
		<path class="st1" d="M81,127.4l-26.4-0.7c-2.3-0.1-4.1-2-4-4.2l0.1-3.4c0.1-2.3,2-4.1,4.2-4l26.4,0.7c2.3,0.1,4.1,2,4,4.2
			l-0.1,3.4C85.2,125.7,83.3,127.5,81,127.4z M55,116.5c-1.5,0-2.7,1.1-2.8,2.6l-0.1,3.4c0,1.5,1.1,2.7,2.6,2.8l26.4,0.7
			c1.5,0,2.7-1.1,2.8-2.6L84,120c0-1.5-1.1-2.7-2.6-2.8L55,116.5z"/>
		<path class="st1" d="M67.6,134.6c-6.3-0.2-11.4-3.7-11.3-7.8l0.9,0c-0.1,3.7,4.6,6.8,10.4,7s10.7-2.7,10.8-6.4l0.9,0
			C79.2,131.5,74,134.7,67.6,134.6z"/>
	</g>
	<g>
		<g>
			<path class="st2" d="M21.7,48.5c-4.3-2-8.7-4.1-13-6.1c-1.2-0.6-2.8-0.4-3.4,0.9c-0.6,1.1-0.4,2.8,0.9,3.4c4.3,2,8.7,4.1,13,6.1
				c1.2,0.6,2.8,0.4,3.4-0.9C23.2,50.8,23,49.1,21.7,48.5L21.7,48.5z"/>
		</g>
	</g>
	<g>
		<g>
			<path class="st2" d="M59.4,25.2c-2.3-6-4.6-11.9-6.9-17.9C52,6,50.8,5.1,49.4,5.5c-1.2,0.3-2.2,1.8-1.7,3.1
				c2.3,6,4.6,11.9,6.9,17.9c0.5,1.3,1.7,2.1,3.1,1.7C58.9,27.9,59.9,26.4,59.4,25.2L59.4,25.2z"/>
		</g>
	</g>
	<g>
		<g>
			<path class="st2" d="M97.3,32.9c2-3.6,3.9-7.1,5.9-10.7c0.6-1.1,0.3-2.8-0.9-3.4c-1.2-0.6-2.7-0.3-3.4,0.9
				c-2,3.6-3.9,7.1-5.9,10.7c-0.6,1.1-0.3,2.8,0.9,3.4C95,34.4,96.6,34.1,97.3,32.9L97.3,32.9z"/>
		</g>
	</g>
	<g>
		<g>
			<path class="st2" d="M114.8,57.5c5.1-1.6,10.3-3.2,15.4-4.7c1.2-0.4,2.2-1.8,1.7-3.1c-0.4-1.3-1.7-2.2-3.1-1.7
				c-5.1,1.6-10.3,3.2-15.4,4.7c-1.2,0.4-2.2,1.8-1.7,3.1C112.1,57,113.4,57.9,114.8,57.5L114.8,57.5z"/>
		</g>
	</g>
</g>
</svg>
